<?xml version="1.0" encoding="utf-8"?>
<svg xmlns="http://www.w3.org/2000/svg" xmlns:xlink="http://www.w3.org/1999/xlink" width="260" height="200" viewBox="0 0 1040 800">
<defs>
  <clipPath id="clip130">
    <rect x="0" y="0" width="1040" height="800"/>
  </clipPath>
</defs>
<path clip-path="url(#clip130)" d="M0 800 L1040 800 L1040 0 L0 0  Z" fill="#ffffff" fill-rule="evenodd" fill-opacity="1"/>
<defs>
  <clipPath id="clip131">
    <rect x="208" y="0" width="729" height="729"/>
  </clipPath>
</defs>
<path clip-path="url(#clip130)" d="M178.072 628.521 L992.756 628.521 L992.756 107.854 L178.072 107.854  Z" fill="#ffffff" fill-rule="evenodd" fill-opacity="1"/>
<defs>
  <clipPath id="clip132">
    <rect x="178" y="107" width="816" height="522"/>
  </clipPath>
</defs>
<polyline clip-path="url(#clip132)" style="stroke:#000000; stroke-linecap:round; stroke-linejoin:round; stroke-width:2; stroke-opacity:0.1; fill:none" points="201.13,628.521 201.13,107.854 "/>
<polyline clip-path="url(#clip132)" style="stroke:#000000; stroke-linecap:round; stroke-linejoin:round; stroke-width:2; stroke-opacity:0.1; fill:none" points="354.843,628.521 354.843,107.854 "/>
<polyline clip-path="url(#clip132)" style="stroke:#000000; stroke-linecap:round; stroke-linejoin:round; stroke-width:2; stroke-opacity:0.1; fill:none" points="508.557,628.521 508.557,107.854 "/>
<polyline clip-path="url(#clip132)" style="stroke:#000000; stroke-linecap:round; stroke-linejoin:round; stroke-width:2; stroke-opacity:0.1; fill:none" points="662.271,628.521 662.271,107.854 "/>
<polyline clip-path="url(#clip132)" style="stroke:#000000; stroke-linecap:round; stroke-linejoin:round; stroke-width:2; stroke-opacity:0.1; fill:none" points="815.985,628.521 815.985,107.854 "/>
<polyline clip-path="url(#clip132)" style="stroke:#000000; stroke-linecap:round; stroke-linejoin:round; stroke-width:2; stroke-opacity:0.1; fill:none" points="969.699,628.521 969.699,107.854 "/>
<polyline clip-path="url(#clip130)" style="stroke:#000000; stroke-linecap:round; stroke-linejoin:round; stroke-width:4; stroke-opacity:1; fill:none" points="178.072,628.521 992.756,628.521 "/>
<polyline clip-path="url(#clip130)" style="stroke:#000000; stroke-linecap:round; stroke-linejoin:round; stroke-width:4; stroke-opacity:1; fill:none" points="178.072,107.854 992.756,107.854 "/>
<polyline clip-path="url(#clip130)" style="stroke:#000000; stroke-linecap:round; stroke-linejoin:round; stroke-width:4; stroke-opacity:1; fill:none" points="201.13,628.521 201.13,609.624 "/>
<polyline clip-path="url(#clip130)" style="stroke:#000000; stroke-linecap:round; stroke-linejoin:round; stroke-width:4; stroke-opacity:1; fill:none" points="354.843,628.521 354.843,609.624 "/>
<polyline clip-path="url(#clip130)" style="stroke:#000000; stroke-linecap:round; stroke-linejoin:round; stroke-width:4; stroke-opacity:1; fill:none" points="508.557,628.521 508.557,609.624 "/>
<polyline clip-path="url(#clip130)" style="stroke:#000000; stroke-linecap:round; stroke-linejoin:round; stroke-width:4; stroke-opacity:1; fill:none" points="662.271,628.521 662.271,609.624 "/>
<polyline clip-path="url(#clip130)" style="stroke:#000000; stroke-linecap:round; stroke-linejoin:round; stroke-width:4; stroke-opacity:1; fill:none" points="815.985,628.521 815.985,609.624 "/>
<polyline clip-path="url(#clip130)" style="stroke:#000000; stroke-linecap:round; stroke-linejoin:round; stroke-width:4; stroke-opacity:1; fill:none" points="969.699,628.521 969.699,609.624 "/>
<path clip-path="url(#clip130)" d="M171.078 663.861 Q171.078 656.425 172.955 652.374 Q175.574 646.346 181.75 646.346 Q183.059 646.346 184.418 646.717 Q185.801 647.062 187.53 648.421 Q189.284 649.78 190.347 652.003 Q192.372 656.301 192.372 663.861 Q192.372 671.247 190.495 675.274 Q187.753 681.153 181.7 681.153 Q179.428 681.153 177.106 679.992 Q174.808 678.831 173.351 676.039 Q171.078 671.865 171.078 663.861 M175.278 663.243 Q175.278 670.876 175.821 673.915 Q176.439 677.2 178.118 678.633 Q179.823 680.041 181.7 680.041 Q183.726 680.041 185.406 678.534 Q187.11 677.003 187.629 673.717 Q188.197 670.481 188.173 663.243 Q188.173 656.203 187.679 653.386 Q187.012 650.101 185.233 648.792 Q183.479 647.458 181.7 647.458 Q181.033 647.458 180.317 647.655 Q179.625 647.853 178.612 648.421 Q177.6 648.989 176.809 650.397 Q176.043 651.805 175.673 653.93 Q175.278 656.672 175.278 663.243 Z" fill="#000000" fill-rule="nonzero" fill-opacity="1" /><path clip-path="url(#clip130)" d="M199.462 679.226 Q198.696 678.411 198.696 677.349 Q198.696 676.286 199.462 675.521 Q200.228 674.73 201.389 674.73 Q202.501 674.73 203.242 675.471 Q204.008 676.188 204.008 677.373 Q204.008 678.534 203.192 679.3 Q202.402 680.041 201.389 680.041 Q200.228 680.041 199.462 679.226 Z" fill="#000000" fill-rule="nonzero" fill-opacity="1" /><path clip-path="url(#clip130)" d="M210.974 671.889 Q210.974 670.382 211.789 669.814 Q212.604 669.221 213.469 669.221 Q214.63 669.221 215.297 669.962 Q215.989 670.679 215.989 671.692 Q215.989 672.704 215.297 673.446 Q214.63 674.162 213.469 674.162 Q212.901 674.162 212.604 674.063 Q213.271 676.385 215.297 678.065 Q217.347 679.745 220.04 679.745 Q223.424 679.745 225.45 676.459 Q226.66 674.335 226.66 669.518 Q226.66 665.269 225.746 663.144 Q224.338 659.908 221.448 659.908 Q217.347 659.908 214.926 663.441 Q214.63 663.885 214.284 663.91 Q213.79 663.91 213.667 663.638 Q213.568 663.342 213.568 662.576 L213.568 647.606 Q213.568 646.395 214.062 646.395 Q214.259 646.395 214.679 646.544 Q217.866 647.952 221.399 647.976 Q225.03 647.976 228.291 646.494 Q228.538 646.346 228.686 646.346 Q229.18 646.346 229.205 646.914 Q229.205 647.112 228.785 647.705 Q228.39 648.273 227.525 649.039 Q226.66 649.78 225.549 650.496 Q224.437 651.213 222.807 651.707 Q221.201 652.176 219.422 652.176 Q217.298 652.176 215.124 651.509 L215.124 661.366 Q217.743 658.796 221.547 658.796 Q225.598 658.796 228.39 662.057 Q231.181 665.318 231.181 669.864 Q231.181 674.631 227.871 677.892 Q224.585 681.153 220.139 681.153 Q216.087 681.153 213.518 678.263 Q210.974 675.372 210.974 671.889 Z" fill="#000000" fill-rule="nonzero" fill-opacity="1" /><path clip-path="url(#clip130)" d="M324.594 663.861 Q324.594 656.425 326.472 652.374 Q329.09 646.346 335.266 646.346 Q336.575 646.346 337.934 646.717 Q339.317 647.062 341.047 648.421 Q342.801 649.78 343.863 652.003 Q345.888 656.301 345.888 663.861 Q345.888 671.247 344.011 675.274 Q341.269 681.153 335.217 681.153 Q332.944 681.153 330.622 679.992 Q328.324 678.831 326.867 676.039 Q324.594 671.865 324.594 663.861 M328.794 663.243 Q328.794 670.876 329.337 673.915 Q329.955 677.2 331.635 678.633 Q333.339 680.041 335.217 680.041 Q337.242 680.041 338.922 678.534 Q340.627 677.003 341.145 673.717 Q341.714 670.481 341.689 663.243 Q341.689 656.203 341.195 653.386 Q340.528 650.101 338.749 648.792 Q336.995 647.458 335.217 647.458 Q334.55 647.458 333.833 647.655 Q333.142 647.853 332.129 648.421 Q331.116 648.989 330.325 650.397 Q329.56 651.805 329.189 653.93 Q328.794 656.672 328.794 663.243 Z" fill="#000000" fill-rule="nonzero" fill-opacity="1" /><path clip-path="url(#clip130)" d="M352.978 679.226 Q352.213 678.411 352.213 677.349 Q352.213 676.286 352.978 675.521 Q353.744 674.73 354.905 674.73 Q356.017 674.73 356.758 675.471 Q357.524 676.188 357.524 677.373 Q357.524 678.534 356.709 679.3 Q355.918 680.041 354.905 680.041 Q353.744 680.041 352.978 679.226 Z" fill="#000000" fill-rule="nonzero" fill-opacity="1" /><path clip-path="url(#clip130)" d="M364.095 664.058 Q364.095 656.104 368.146 651.237 Q372.198 646.346 377.41 646.346 Q380.448 646.346 382.128 647.902 Q383.833 649.434 383.833 651.805 Q383.833 653.115 383.067 653.683 Q382.301 654.251 381.511 654.251 Q380.597 654.251 379.88 653.633 Q379.164 653.016 379.164 651.904 Q379.164 649.632 381.955 649.632 Q380.646 647.606 377.509 647.606 Q376.545 647.606 375.557 647.902 Q374.569 648.174 373.284 649.113 Q372 650.052 371.012 651.534 Q370.024 653.016 369.332 655.807 Q368.64 658.599 368.64 662.23 L368.64 663.441 Q370.715 658.426 374.964 658.451 Q379.213 658.451 382.153 661.687 Q385.093 664.923 385.093 669.715 Q385.093 674.631 382.029 677.892 Q378.966 681.153 374.668 681.153 Q372.741 681.153 370.987 680.338 Q369.258 679.547 367.627 677.719 Q366.022 675.891 365.058 672.383 Q364.095 668.875 364.095 664.058 M368.739 668.604 Q368.739 673.569 369.653 675.941 Q369.801 676.336 370.122 676.879 Q370.468 677.423 371.036 678.139 Q371.629 678.831 372.593 679.3 Q373.556 679.745 374.668 679.745 Q378.052 679.745 379.683 676.459 Q380.547 674.631 380.547 669.666 Q380.547 664.602 379.633 662.749 Q378.077 659.612 374.915 659.612 Q372.79 659.612 371.308 661.069 Q369.851 662.527 369.283 664.478 Q368.739 666.43 368.739 668.604 Z" fill="#000000" fill-rule="nonzero" fill-opacity="1" /><path clip-path="url(#clip130)" d="M477.604 663.861 Q477.604 656.425 479.481 652.374 Q482.1 646.346 488.276 646.346 Q489.585 646.346 490.944 646.717 Q492.327 647.062 494.056 648.421 Q495.81 649.78 496.873 652.003 Q498.898 656.301 498.898 663.861 Q498.898 671.247 497.021 675.274 Q494.279 681.153 488.226 681.153 Q485.954 681.153 483.632 679.992 Q481.334 678.831 479.877 676.039 Q477.604 671.865 477.604 663.861 M481.804 663.243 Q481.804 670.876 482.347 673.915 Q482.965 677.2 484.644 678.633 Q486.349 680.041 488.226 680.041 Q490.252 680.041 491.932 678.534 Q493.636 677.003 494.155 673.717 Q494.723 670.481 494.699 663.243 Q494.699 656.203 494.205 653.386 Q493.538 650.101 491.759 648.792 Q490.005 647.458 488.226 647.458 Q487.559 647.458 486.843 647.655 Q486.151 647.853 485.138 648.421 Q484.126 648.989 483.335 650.397 Q482.569 651.805 482.199 653.93 Q481.804 656.672 481.804 663.243 Z" fill="#000000" fill-rule="nonzero" fill-opacity="1" /><path clip-path="url(#clip130)" d="M505.988 679.226 Q505.222 678.411 505.222 677.349 Q505.222 676.286 505.988 675.521 Q506.754 674.73 507.915 674.73 Q509.027 674.73 509.768 675.471 Q510.534 676.188 510.534 677.373 Q510.534 678.534 509.718 679.3 Q508.928 680.041 507.915 680.041 Q506.754 680.041 505.988 679.226 Z" fill="#000000" fill-rule="nonzero" fill-opacity="1" /><path clip-path="url(#clip130)" d="M517.821 656.252 L519.476 645.852 L520.736 645.852 Q520.884 646.47 521.131 646.741 Q521.403 647.013 522.836 647.235 Q524.293 647.458 527.233 647.458 L539.511 647.458 Q539.511 648.619 539.066 649.236 L532.223 658.846 Q530.049 661.884 529.086 667.492 Q528.518 671.247 528.542 675.792 L528.542 678.362 Q528.542 681.153 526.195 681.153 Q523.873 681.153 523.873 678.362 Q523.873 668.703 530.099 659.34 Q530.766 658.377 533.211 654.943 Q535.682 651.509 535.78 651.361 L525.306 651.361 Q520.711 651.361 520.341 651.657 Q519.847 652.102 519.081 656.252 L517.821 656.252 Z" fill="#000000" fill-rule="nonzero" fill-opacity="1" /><path clip-path="url(#clip130)" d="M632.022 663.861 Q632.022 656.425 633.899 652.374 Q636.518 646.346 642.694 646.346 Q644.003 646.346 645.362 646.717 Q646.745 647.062 648.474 648.421 Q650.228 649.78 651.29 652.003 Q653.316 656.301 653.316 663.861 Q653.316 671.247 651.439 675.274 Q648.697 681.153 642.644 681.153 Q640.372 681.153 638.049 679.992 Q635.752 678.831 634.295 676.039 Q632.022 671.865 632.022 663.861 M636.221 663.243 Q636.221 670.876 636.765 673.915 Q637.382 677.2 639.062 678.633 Q640.767 680.041 642.644 680.041 Q644.67 680.041 646.35 678.534 Q648.054 677.003 648.573 673.717 Q649.141 670.481 649.117 663.243 Q649.117 656.203 648.623 653.386 Q647.956 650.101 646.177 648.792 Q644.423 647.458 642.644 647.458 Q641.977 647.458 641.261 647.655 Q640.569 647.853 639.556 648.421 Q638.544 648.989 637.753 650.397 Q636.987 651.805 636.617 653.93 Q636.221 656.672 636.221 663.243 Z" fill="#000000" fill-rule="nonzero" fill-opacity="1" /><path clip-path="url(#clip130)" d="M660.406 679.226 Q659.64 678.411 659.64 677.349 Q659.64 676.286 660.406 675.521 Q661.172 674.73 662.333 674.73 Q663.445 674.73 664.186 675.471 Q664.951 676.188 664.951 677.373 Q664.951 678.534 664.136 679.3 Q663.346 680.041 662.333 680.041 Q661.172 680.041 660.406 679.226 Z" fill="#000000" fill-rule="nonzero" fill-opacity="1" /><path clip-path="url(#clip130)" d="M671.523 672.408 Q671.523 666.751 678.81 663.095 Q675.673 660.97 675.105 660.353 Q672.881 657.882 672.881 654.795 Q672.881 651.262 675.549 648.816 Q678.242 646.346 682.046 646.346 Q685.678 646.346 688.42 648.446 Q691.162 650.546 691.162 653.881 Q691.162 658.574 685.035 661.736 Q689.087 664.256 690.05 665.318 Q692.52 668.06 692.52 671.543 Q692.52 675.595 689.408 678.386 Q686.295 681.153 681.997 681.153 Q677.797 681.153 674.66 678.707 Q671.523 676.262 671.523 672.408 M674.042 672.408 Q674.042 675.545 676.389 677.645 Q678.761 679.745 682.046 679.745 Q685.233 679.745 687.604 677.917 Q690.001 676.089 690.001 673.371 Q690.001 672.309 689.63 671.395 Q689.284 670.481 688.568 669.765 Q687.876 669.024 687.431 668.703 Q687.012 668.357 686.196 667.789 L679.971 663.861 Q674.042 667.146 674.042 672.408 M675.105 652.818 Q675.105 655.239 677.649 656.919 L683.924 660.97 Q688.938 658.031 688.938 653.881 Q688.938 651.188 686.888 649.409 Q684.838 647.606 681.997 647.606 Q679.205 647.606 677.155 649.088 Q675.105 650.546 675.105 652.818 Z" fill="#000000" fill-rule="nonzero" fill-opacity="1" /><path clip-path="url(#clip130)" d="M785.736 663.861 Q785.736 656.425 787.613 652.374 Q790.232 646.346 796.408 646.346 Q797.717 646.346 799.076 646.717 Q800.459 647.062 802.188 648.421 Q803.942 649.78 805.004 652.003 Q807.03 656.301 807.03 663.861 Q807.03 671.247 805.153 675.274 Q802.41 681.153 796.358 681.153 Q794.085 681.153 791.763 679.992 Q789.466 678.831 788.008 676.039 Q785.736 671.865 785.736 663.861 M789.935 663.243 Q789.935 670.876 790.479 673.915 Q791.096 677.2 792.776 678.633 Q794.481 680.041 796.358 680.041 Q798.384 680.041 800.064 678.534 Q801.768 677.003 802.287 673.717 Q802.855 670.481 802.83 663.243 Q802.83 656.203 802.336 653.386 Q801.669 650.101 799.891 648.792 Q798.137 647.458 796.358 647.458 Q795.691 647.458 794.975 647.655 Q794.283 647.853 793.27 648.421 Q792.257 648.989 791.467 650.397 Q790.701 651.805 790.331 653.93 Q789.935 656.672 789.935 663.243 Z" fill="#000000" fill-rule="nonzero" fill-opacity="1" /><path clip-path="url(#clip130)" d="M814.12 679.226 Q813.354 678.411 813.354 677.349 Q813.354 676.286 814.12 675.521 Q814.886 674.73 816.047 674.73 Q817.158 674.73 817.899 675.471 Q818.665 676.188 818.665 677.373 Q818.665 678.534 817.85 679.3 Q817.06 680.041 816.047 680.041 Q814.886 680.041 814.12 679.226 Z" fill="#000000" fill-rule="nonzero" fill-opacity="1" /><path clip-path="url(#clip130)" d="M825.236 657.734 Q825.236 655.042 826.027 653.214 Q826.817 651.361 828.473 649.533 Q831.511 646.346 835.908 646.346 Q837.786 646.346 839.441 647.137 Q841.121 647.927 842.702 649.73 Q844.307 651.509 845.271 655.042 Q846.234 658.549 846.234 663.391 Q846.234 671.222 842.43 676.188 Q838.65 681.153 833.537 681.153 Q830.301 681.153 828.398 679.696 Q826.496 678.213 826.496 675.694 Q826.496 674.384 827.237 673.841 Q827.978 673.273 828.818 673.273 Q829.732 673.273 830.449 673.89 Q831.165 674.483 831.165 675.595 Q831.165 676.509 830.572 677.225 Q830.004 677.917 828.522 677.917 Q829.979 679.745 833.487 679.745 Q834.747 679.745 836.007 679.177 Q837.267 678.584 838.626 677.176 Q840.009 675.743 840.849 672.754 Q841.689 669.765 841.689 665.565 L841.689 663.959 Q839.663 669.024 835.365 669.024 Q831.116 669.024 828.176 665.763 Q825.236 662.502 825.236 657.734 M829.782 657.784 Q829.782 662.798 830.696 664.651 Q832.252 667.838 835.414 667.838 Q838.502 667.838 840.034 665.096 Q841.59 662.329 841.59 658.747 Q841.59 653.782 840.775 651.608 Q839.268 647.606 835.908 647.606 Q832.573 647.606 830.844 650.793 Q829.782 652.67 829.782 657.784 Z" fill="#000000" fill-rule="nonzero" fill-opacity="1" /><path clip-path="url(#clip130)" d="M940.635 651.163 L940.635 649.582 Q946.712 649.582 949.85 646.346 Q950.714 646.346 950.863 646.544 Q951.011 646.741 951.011 647.655 L951.011 676.039 Q951.011 677.546 951.752 678.016 Q952.493 678.485 955.729 678.485 L957.335 678.485 L957.335 680.041 Q955.556 679.893 949.133 679.893 Q942.71 679.893 940.956 680.041 L940.956 678.485 L942.562 678.485 Q945.749 678.485 946.515 678.04 Q947.281 677.571 947.281 676.039 L947.281 649.829 Q944.637 651.163 940.635 651.163 Z" fill="#000000" fill-rule="nonzero" fill-opacity="1" /><path clip-path="url(#clip130)" d="M966.5 679.226 Q965.734 678.411 965.734 677.349 Q965.734 676.286 966.5 675.521 Q967.266 674.73 968.427 674.73 Q969.538 674.73 970.279 675.471 Q971.045 676.188 971.045 677.373 Q971.045 678.534 970.23 679.3 Q969.439 680.041 968.427 680.041 Q967.266 680.041 966.5 679.226 Z" fill="#000000" fill-rule="nonzero" fill-opacity="1" /><path clip-path="url(#clip130)" d="M977.468 663.861 Q977.468 656.425 979.345 652.374 Q981.964 646.346 988.14 646.346 Q989.449 646.346 990.808 646.717 Q992.191 647.062 993.92 648.421 Q995.674 649.78 996.737 652.003 Q998.762 656.301 998.762 663.861 Q998.762 671.247 996.885 675.274 Q994.143 681.153 988.09 681.153 Q985.818 681.153 983.496 679.992 Q981.198 678.831 979.741 676.039 Q977.468 671.865 977.468 663.861 M981.668 663.243 Q981.668 670.876 982.211 673.915 Q982.829 677.2 984.508 678.633 Q986.213 680.041 988.09 680.041 Q990.116 680.041 991.796 678.534 Q993.501 677.003 994.019 673.717 Q994.587 670.481 994.563 663.243 Q994.563 656.203 994.069 653.386 Q993.402 650.101 991.623 648.792 Q989.869 647.458 988.09 647.458 Q987.423 647.458 986.707 647.655 Q986.015 647.853 985.003 648.421 Q983.99 648.989 983.199 650.397 Q982.433 651.805 982.063 653.93 Q981.668 656.672 981.668 663.243 Z" fill="#000000" fill-rule="nonzero" fill-opacity="1" /><path clip-path="url(#clip130)" d="M599.671 701.992 Q599.671 702.677 599.381 703.995 Q598.459 707.71 595.007 710.266 Q594.427 710.74 593.4 711.346 Q594.638 712.163 595.718 713.665 Q597.326 716.142 597.326 719.489 Q597.326 721.043 596.904 722.941 Q595.718 727.341 591.555 730.503 Q587.365 733.586 582.385 733.586 Q579.697 733.586 577.853 732.163 Q576.035 730.714 575.323 728.29 L571.661 743.072 Q571.581 743.441 571.107 743.441 L570.844 743.441 Q570.29 743.441 570.29 742.809 L578.617 709.607 Q579.17 707.368 580.066 705.26 Q580.962 703.152 582.201 701.254 Q583.465 699.357 584.915 697.961 Q586.364 696.538 588.156 695.721 Q589.948 694.878 591.845 694.878 Q595.824 694.878 598.09 697.592 Q599.671 699.515 599.671 701.992 M596.641 701.044 Q596.641 699.41 595.982 698.277 Q594.638 696.116 591.792 696.116 Q590.079 696.116 588.446 696.907 Q586.838 697.671 585.547 698.988 Q584.256 700.306 583.149 702.098 Q582.043 703.889 581.226 705.839 Q580.435 707.763 579.908 709.871 L576.667 722.941 Q576.351 724.337 576.351 725.576 Q576.351 728.527 577.985 730.45 Q579.618 732.374 582.438 732.374 Q586.18 732.374 589.394 729.581 Q592.187 727.078 593.347 722.677 Q594.006 719.91 594.006 717.987 Q594.006 715.879 593.241 714.245 Q592.688 712.927 591.608 712.137 Q589.605 712.848 587.576 712.848 Q586.601 712.848 586.074 712.822 Q585.573 712.796 584.836 712.69 Q584.124 712.585 583.782 712.295 Q583.465 712.005 583.465 711.557 Q583.465 711.294 583.518 711.188 Q583.624 710.767 583.966 710.477 Q584.309 710.187 584.704 710.055 Q585.099 709.897 585.758 709.818 Q586.443 709.739 586.891 709.739 Q587.339 709.713 588.103 709.713 Q589.895 709.713 591.713 710.424 Q592.398 710.055 593.136 709.397 Q595.481 707.209 596.272 703.731 Q596.641 702.44 596.641 701.044 M590 711.241 Q588.894 710.951 588.05 710.951 Q584.967 710.951 584.809 711.452 Q584.809 711.505 584.915 711.557 Q585.02 711.584 585.257 711.61 Q585.521 711.61 585.732 711.636 Q585.969 711.663 586.364 711.663 Q586.759 711.663 586.97 711.663 Q587.207 711.663 587.629 711.663 Q588.683 711.663 590 711.241 Z" fill="#000000" fill-rule="nonzero" fill-opacity="1" /><polyline clip-path="url(#clip132)" style="stroke:#000000; stroke-linecap:round; stroke-linejoin:round; stroke-width:2; stroke-opacity:0.1; fill:none" points="178.072,628.521 992.756,628.521 "/>
<polyline clip-path="url(#clip132)" style="stroke:#000000; stroke-linecap:round; stroke-linejoin:round; stroke-width:2; stroke-opacity:0.1; fill:none" points="178.072,541.743 992.756,541.743 "/>
<polyline clip-path="url(#clip132)" style="stroke:#000000; stroke-linecap:round; stroke-linejoin:round; stroke-width:2; stroke-opacity:0.1; fill:none" points="178.072,454.965 992.756,454.965 "/>
<polyline clip-path="url(#clip132)" style="stroke:#000000; stroke-linecap:round; stroke-linejoin:round; stroke-width:2; stroke-opacity:0.1; fill:none" points="178.072,368.188 992.756,368.188 "/>
<polyline clip-path="url(#clip132)" style="stroke:#000000; stroke-linecap:round; stroke-linejoin:round; stroke-width:2; stroke-opacity:0.1; fill:none" points="178.072,281.41 992.756,281.41 "/>
<polyline clip-path="url(#clip132)" style="stroke:#000000; stroke-linecap:round; stroke-linejoin:round; stroke-width:2; stroke-opacity:0.1; fill:none" points="178.072,194.632 992.756,194.632 "/>
<polyline clip-path="url(#clip132)" style="stroke:#000000; stroke-linecap:round; stroke-linejoin:round; stroke-width:2; stroke-opacity:0.1; fill:none" points="178.072,107.854 992.756,107.854 "/>
<polyline clip-path="url(#clip130)" style="stroke:#000000; stroke-linecap:round; stroke-linejoin:round; stroke-width:4; stroke-opacity:1; fill:none" points="178.072,628.521 178.072,107.854 "/>
<polyline clip-path="url(#clip130)" style="stroke:#000000; stroke-linecap:round; stroke-linejoin:round; stroke-width:4; stroke-opacity:1; fill:none" points="992.756,628.521 992.756,107.854 "/>
<polyline clip-path="url(#clip130)" style="stroke:#000000; stroke-linecap:round; stroke-linejoin:round; stroke-width:4; stroke-opacity:1; fill:none" points="178.072,628.521 196.97,628.521 "/>
<polyline clip-path="url(#clip130)" style="stroke:#000000; stroke-linecap:round; stroke-linejoin:round; stroke-width:4; stroke-opacity:1; fill:none" points="178.072,541.743 196.97,541.743 "/>
<polyline clip-path="url(#clip130)" style="stroke:#000000; stroke-linecap:round; stroke-linejoin:round; stroke-width:4; stroke-opacity:1; fill:none" points="178.072,454.965 196.97,454.965 "/>
<polyline clip-path="url(#clip130)" style="stroke:#000000; stroke-linecap:round; stroke-linejoin:round; stroke-width:4; stroke-opacity:1; fill:none" points="178.072,368.188 196.97,368.188 "/>
<polyline clip-path="url(#clip130)" style="stroke:#000000; stroke-linecap:round; stroke-linejoin:round; stroke-width:4; stroke-opacity:1; fill:none" points="178.072,281.41 196.97,281.41 "/>
<polyline clip-path="url(#clip130)" style="stroke:#000000; stroke-linecap:round; stroke-linejoin:round; stroke-width:4; stroke-opacity:1; fill:none" points="178.072,194.632 196.97,194.632 "/>
<polyline clip-path="url(#clip130)" style="stroke:#000000; stroke-linecap:round; stroke-linejoin:round; stroke-width:4; stroke-opacity:1; fill:none" points="178.072,107.854 196.97,107.854 "/>
<path clip-path="url(#clip130)" d="M141.178 629.621 Q141.178 622.185 143.056 618.134 Q145.674 612.106 151.85 612.106 Q153.159 612.106 154.518 612.477 Q155.901 612.822 157.631 614.181 Q159.385 615.54 160.447 617.763 Q162.472 622.061 162.472 629.621 Q162.472 637.007 160.595 641.034 Q157.853 646.913 151.801 646.913 Q149.528 646.913 147.206 645.752 Q144.908 644.591 143.451 641.799 Q141.178 637.625 141.178 629.621 M145.378 629.003 Q145.378 636.636 145.921 639.675 Q146.539 642.96 148.219 644.393 Q149.923 645.801 151.801 645.801 Q153.826 645.801 155.506 644.294 Q157.211 642.763 157.729 639.477 Q158.298 636.241 158.273 629.003 Q158.273 621.963 157.779 619.146 Q157.112 615.861 155.333 614.552 Q153.579 613.218 151.801 613.218 Q151.134 613.218 150.417 613.415 Q149.726 613.613 148.713 614.181 Q147.7 614.749 146.909 616.157 Q146.144 617.565 145.773 619.69 Q145.378 622.432 145.378 629.003 Z" fill="#000000" fill-rule="nonzero" fill-opacity="1" /><path clip-path="url(#clip130)" d="M142.265 559.023 Q142.265 558.109 142.339 557.838 Q142.438 557.566 142.833 557.146 L152.542 546.326 Q157.853 540.348 157.853 535.135 Q157.853 531.751 156.074 529.33 Q154.32 526.909 151.084 526.909 Q148.861 526.909 146.983 528.268 Q145.106 529.626 144.241 532.047 Q144.39 531.998 144.908 531.998 Q146.168 531.998 146.86 532.788 Q147.576 533.579 147.576 534.641 Q147.576 536 146.687 536.667 Q145.822 537.309 144.958 537.309 Q144.612 537.309 144.143 537.235 Q143.698 537.161 142.982 536.469 Q142.265 535.753 142.265 534.493 Q142.265 530.96 144.933 528.144 Q147.626 525.328 151.727 525.328 Q156.371 525.328 159.409 528.095 Q162.472 530.837 162.472 535.135 Q162.472 536.642 162.003 538.026 Q161.558 539.384 160.941 540.447 Q160.348 541.509 158.718 543.213 Q157.087 544.918 155.778 546.128 Q154.469 547.339 151.529 549.908 L146.168 555.12 L155.284 555.12 Q159.73 555.12 160.076 554.725 Q160.57 554.009 161.188 550.229 L162.472 550.229 L161.04 559.023 L142.265 559.023 Z" fill="#000000" fill-rule="nonzero" fill-opacity="1" /><path clip-path="url(#clip130)" d="M140.042 463.896 L140.042 462.339 L155.58 438.599 Q155.976 437.982 156.593 438.007 Q157.161 438.007 157.285 438.229 Q157.408 438.451 157.408 439.316 L157.408 462.339 L162.472 462.339 L162.472 463.896 L157.408 463.896 L157.408 468.293 Q157.408 469.75 158.001 470.22 Q158.619 470.689 161.237 470.689 L162.3 470.689 L162.3 472.245 Q160.224 472.097 155.432 472.097 Q150.664 472.097 148.589 472.245 L148.589 470.689 L149.651 470.689 Q152.27 470.689 152.888 470.245 Q153.505 469.775 153.505 468.293 L153.505 463.896 L140.042 463.896 M141.475 462.339 L153.802 462.339 L153.802 443.466 L141.475 462.339 Z" fill="#000000" fill-rule="nonzero" fill-opacity="1" /><path clip-path="url(#clip130)" d="M141.475 369.484 Q141.475 361.53 145.526 356.663 Q149.577 351.772 154.79 351.772 Q157.828 351.772 159.508 353.328 Q161.213 354.86 161.213 357.232 Q161.213 358.541 160.447 359.109 Q159.681 359.677 158.891 359.677 Q157.976 359.677 157.26 359.06 Q156.544 358.442 156.544 357.33 Q156.544 355.058 159.335 355.058 Q158.026 353.032 154.889 353.032 Q153.925 353.032 152.937 353.328 Q151.949 353.6 150.664 354.539 Q149.38 355.478 148.392 356.96 Q147.403 358.442 146.712 361.234 Q146.02 364.025 146.02 367.656 L146.02 368.867 Q148.095 363.852 152.344 363.877 Q156.593 363.877 159.533 367.113 Q162.472 370.349 162.472 375.142 Q162.472 380.057 159.409 383.318 Q156.346 386.579 152.048 386.579 Q150.121 386.579 148.367 385.764 Q146.638 384.973 145.007 383.145 Q143.401 381.317 142.438 377.809 Q141.475 374.302 141.475 369.484 M146.119 374.03 Q146.119 378.995 147.033 381.367 Q147.181 381.762 147.502 382.305 Q147.848 382.849 148.416 383.565 Q149.009 384.257 149.973 384.726 Q150.936 385.171 152.048 385.171 Q155.432 385.171 157.062 381.886 Q157.927 380.057 157.927 375.092 Q157.927 370.028 157.013 368.175 Q155.457 365.038 152.295 365.038 Q150.17 365.038 148.688 366.495 Q147.231 367.953 146.662 369.904 Q146.119 371.856 146.119 374.03 Z" fill="#000000" fill-rule="nonzero" fill-opacity="1" /><path clip-path="url(#clip130)" d="M141.475 291.056 Q141.475 285.399 148.762 281.743 Q145.625 279.619 145.057 279.001 Q142.833 276.531 142.833 273.443 Q142.833 269.91 145.501 267.465 Q148.194 264.994 151.998 264.994 Q155.63 264.994 158.372 267.094 Q161.114 269.194 161.114 272.529 Q161.114 277.222 154.987 280.384 Q159.039 282.904 160.002 283.966 Q162.472 286.708 162.472 290.192 Q162.472 294.243 159.36 297.034 Q156.247 299.801 151.949 299.801 Q147.749 299.801 144.612 297.356 Q141.475 294.91 141.475 291.056 M143.994 291.056 Q143.994 294.194 146.341 296.293 Q148.713 298.393 151.998 298.393 Q155.185 298.393 157.557 296.565 Q159.953 294.737 159.953 292.02 Q159.953 290.957 159.582 290.043 Q159.236 289.129 158.52 288.413 Q157.828 287.672 157.384 287.351 Q156.964 287.005 156.148 286.437 L149.923 282.509 Q143.994 285.794 143.994 291.056 M145.057 271.466 Q145.057 273.887 147.601 275.567 L153.876 279.619 Q158.891 276.679 158.891 272.529 Q158.891 269.836 156.84 268.057 Q154.79 266.254 151.949 266.254 Q149.157 266.254 147.107 267.736 Q145.057 269.194 145.057 271.466 Z" fill="#000000" fill-rule="nonzero" fill-opacity="1" /><path clip-path="url(#clip130)" d="M118.402 183.033 L118.402 181.452 Q124.479 181.452 127.616 178.216 Q128.481 178.216 128.629 178.414 Q128.777 178.611 128.777 179.526 L128.777 207.91 Q128.777 209.417 129.518 209.886 Q130.259 210.355 133.495 210.355 L135.101 210.355 L135.101 211.912 Q133.323 211.763 126.9 211.763 Q120.477 211.763 118.723 211.912 L118.723 210.355 L120.329 210.355 Q123.515 210.355 124.281 209.911 Q125.047 209.441 125.047 207.91 L125.047 181.699 Q122.404 183.033 118.402 183.033 Z" fill="#000000" fill-rule="nonzero" fill-opacity="1" /><path clip-path="url(#clip130)" d="M141.178 195.731 Q141.178 188.295 143.056 184.244 Q145.674 178.216 151.85 178.216 Q153.159 178.216 154.518 178.587 Q155.901 178.933 157.631 180.291 Q159.385 181.65 160.447 183.873 Q162.472 188.172 162.472 195.731 Q162.472 203.117 160.595 207.144 Q157.853 213.023 151.801 213.023 Q149.528 213.023 147.206 211.862 Q144.908 210.701 143.451 207.91 Q141.178 203.735 141.178 195.731 M145.378 195.113 Q145.378 202.747 145.921 205.785 Q146.539 209.071 148.219 210.504 Q149.923 211.912 151.801 211.912 Q153.826 211.912 155.506 210.405 Q157.211 208.873 157.729 205.588 Q158.298 202.351 158.273 195.113 Q158.273 188.073 157.779 185.257 Q157.112 181.971 155.333 180.662 Q153.579 179.328 151.801 179.328 Q151.134 179.328 150.417 179.526 Q149.726 179.723 148.713 180.291 Q147.7 180.859 146.909 182.268 Q146.144 183.676 145.773 185.8 Q145.378 188.542 145.378 195.113 Z" fill="#000000" fill-rule="nonzero" fill-opacity="1" /><path clip-path="url(#clip130)" d="M118.945 96.2554 L118.945 94.6744 Q125.022 94.6744 128.16 91.4383 Q129.024 91.4383 129.172 91.6359 Q129.321 91.8335 129.321 92.7476 L129.321 121.132 Q129.321 122.639 130.062 123.108 Q130.803 123.577 134.039 123.577 L135.645 123.577 L135.645 125.134 Q133.866 124.985 127.443 124.985 Q121.02 124.985 119.266 125.134 L119.266 123.577 L120.872 123.577 Q124.059 123.577 124.825 123.133 Q125.59 122.663 125.59 121.132 L125.59 94.9215 Q122.947 96.2554 118.945 96.2554 Z" fill="#000000" fill-rule="nonzero" fill-opacity="1" /><path clip-path="url(#clip130)" d="M142.265 125.134 Q142.265 124.22 142.339 123.948 Q142.438 123.676 142.833 123.256 L152.542 112.436 Q157.853 106.458 157.853 101.246 Q157.853 97.8612 156.074 95.4402 Q154.32 93.0193 151.084 93.0193 Q148.861 93.0193 146.983 94.378 Q145.106 95.7367 144.241 98.1576 Q144.39 98.1082 144.908 98.1082 Q146.168 98.1082 146.86 98.8987 Q147.576 99.6892 147.576 100.751 Q147.576 102.11 146.687 102.777 Q145.822 103.419 144.958 103.419 Q144.612 103.419 144.143 103.345 Q143.698 103.271 142.982 102.579 Q142.265 101.863 142.265 100.603 Q142.265 97.0706 144.933 94.2545 Q147.626 91.4383 151.727 91.4383 Q156.371 91.4383 159.409 94.2051 Q162.472 96.9471 162.472 101.246 Q162.472 102.752 162.003 104.136 Q161.558 105.494 160.941 106.557 Q160.348 107.619 158.718 109.324 Q157.087 111.028 155.778 112.239 Q154.469 113.449 151.529 116.018 L146.168 121.231 L155.284 121.231 Q159.73 121.231 160.076 120.835 Q160.57 120.119 161.188 116.339 L162.472 116.339 L161.04 125.134 L142.265 125.134 Z" fill="#000000" fill-rule="nonzero" fill-opacity="1" /><path clip-path="url(#clip130)" d="M63.1415 408.463 Q66.0927 408.463 68.8068 410.65 Q71.5208 412.811 73.1809 416.342 Q74.8146 419.847 74.8146 423.615 L74.8146 432.784 L88.306 436.131 Q88.385 436.157 88.7276 436.236 Q89.0438 436.315 89.2282 436.315 Q89.887 436.315 90.0451 435.499 Q90.2032 434.655 90.2032 432.784 Q90.2032 431.572 90.414 431.388 Q90.5457 431.283 90.7829 431.283 Q91.1518 431.283 91.4153 431.388 Q91.6524 431.493 91.7315 431.704 Q91.8105 431.889 91.8369 432.02 Q91.8632 432.152 91.8632 432.363 Q91.8632 432.916 91.8105 434.102 Q91.7578 435.261 91.7578 435.867 L91.7051 439.319 L91.8632 446.17 Q91.8632 446.987 91.2045 446.987 Q90.7038 446.987 90.493 446.776 Q90.2559 446.566 90.2295 446.329 Q90.2032 446.091 90.2032 445.485 Q90.2032 444.168 90.1241 443.377 Q90.0451 442.587 89.9397 442.086 Q89.8079 441.559 89.439 441.296 Q89.0701 441.006 88.7539 440.874 Q88.4114 440.742 87.6472 440.558 L58.6619 433.338 Q57.7924 433.127 57.6606 433.127 Q57.2127 433.127 57.0546 433.391 Q56.8701 433.628 56.7911 434.313 Q56.6857 435.63 56.6857 436.632 Q56.6857 437.29 56.6593 437.554 Q56.633 437.791 56.5012 438.002 Q56.3431 438.186 56.0269 438.186 Q55.5262 438.186 55.3154 437.975 Q55.0783 437.738 55.0519 437.475 Q54.9992 437.211 54.9992 436.579 L54.9992 419.082 Q54.9992 414.049 57.3971 411.256 Q59.795 408.463 63.1415 408.463 M61.8503 413.47 Q56.6857 413.47 56.6857 420.821 L56.6857 425.986 Q56.6857 427.699 57.0019 428.12 Q57.2917 428.542 58.741 428.911 L73.4181 432.574 L73.4181 424.958 Q73.4181 419.847 70.5459 416.658 Q69.2284 415.209 66.4879 414.339 Q63.7475 413.47 61.8503 413.47 Z" fill="#000000" fill-rule="nonzero" fill-opacity="1" /><path clip-path="url(#clip130)" d="M100.831 403.074 L99.6694 403.074 L81.9436 391.472 Q81.4825 391.176 81.5009 390.715 Q81.5009 390.291 81.6669 390.199 Q81.8329 390.107 82.4785 390.107 L99.6694 390.107 L99.6694 386.325 L100.831 386.325 L100.831 390.107 L104.115 390.107 Q105.203 390.107 105.553 389.664 Q105.904 389.203 105.904 387.248 L105.904 386.455 L107.066 386.455 Q106.955 388.004 106.955 391.582 Q106.955 395.142 107.066 396.692 L105.904 396.692 L105.904 395.898 Q105.904 393.943 105.572 393.482 Q105.221 393.021 104.115 393.021 L100.831 393.021 L100.831 403.074 M99.6694 402.004 L99.6694 392.8 L85.5773 392.8 L99.6694 402.004 Z" fill="#000000" fill-rule="nonzero" fill-opacity="1" /><path clip-path="url(#clip130)" d="M104.59 380.73 Q104.327 380.73 103.747 380.519 L52.8385 361.468 Q52.7858 361.468 52.496 361.336 Q52.2061 361.204 52.0217 361.125 Q51.8109 361.046 51.6528 360.888 Q51.4947 360.704 51.4947 360.493 Q51.4947 359.966 52.1534 359.966 Q52.2061 359.966 52.8385 360.124 L103.8 379.228 Q104.722 379.544 104.986 379.755 Q105.249 379.939 105.249 380.256 Q105.249 380.73 104.59 380.73 Z" fill="#000000" fill-rule="nonzero" fill-opacity="1" /><path clip-path="url(#clip130)" d="M63.1415 315.481 Q66.0927 315.481 68.8068 317.668 Q71.5208 319.829 73.1809 323.36 Q74.8146 326.865 74.8146 330.633 L74.8146 339.803 L88.306 343.149 Q88.385 343.175 88.7276 343.254 Q89.0438 343.333 89.2282 343.333 Q89.887 343.333 90.0451 342.517 Q90.2032 341.673 90.2032 339.803 Q90.2032 338.59 90.414 338.406 Q90.5457 338.301 90.7829 338.301 Q91.1518 338.301 91.4153 338.406 Q91.6524 338.511 91.7315 338.722 Q91.8105 338.907 91.8369 339.038 Q91.8632 339.17 91.8632 339.381 Q91.8632 339.934 91.8105 341.12 Q91.7578 342.279 91.7578 342.886 L91.7051 346.337 L91.8632 353.188 Q91.8632 354.005 91.2045 354.005 Q90.7038 354.005 90.493 353.795 Q90.2559 353.584 90.2295 353.347 Q90.2032 353.109 90.2032 352.503 Q90.2032 351.186 90.1241 350.395 Q90.0451 349.605 89.9397 349.104 Q89.8079 348.577 89.439 348.314 Q89.0701 348.024 88.7539 347.892 Q88.4114 347.76 87.6472 347.576 L58.6619 340.356 Q57.7924 340.145 57.6606 340.145 Q57.2127 340.145 57.0546 340.409 Q56.8701 340.646 56.7911 341.331 Q56.6857 342.648 56.6857 343.65 Q56.6857 344.308 56.6593 344.572 Q56.633 344.809 56.5012 345.02 Q56.3431 345.204 56.0269 345.204 Q55.5262 345.204 55.3154 344.994 Q55.0783 344.756 55.0519 344.493 Q54.9992 344.229 54.9992 343.597 L54.9992 326.1 Q54.9992 321.068 57.3971 318.274 Q59.795 315.481 63.1415 315.481 M61.8503 320.488 Q56.6857 320.488 56.6857 327.84 L56.6857 333.004 Q56.6857 334.717 57.0019 335.139 Q57.2917 335.56 58.741 335.929 L73.4181 339.592 L73.4181 331.977 Q73.4181 326.865 70.5459 323.676 Q69.2284 322.227 66.4879 321.357 Q63.7475 320.488 61.8503 320.488 Z" fill="#000000" fill-rule="nonzero" fill-opacity="1" /><path clip-path="url(#clip130)" d="M106.816 310.092 Q106.133 310.092 105.93 310.036 Q105.727 309.963 105.414 309.667 L97.3349 302.418 Q92.8711 298.453 88.9792 298.453 Q86.4522 298.453 84.6446 299.781 Q82.8369 301.09 82.8369 303.507 Q82.8369 305.167 83.8514 306.569 Q84.8659 307.97 86.6735 308.616 Q86.6367 308.505 86.6367 308.118 Q86.6367 307.177 87.2269 306.661 Q87.8171 306.126 88.6103 306.126 Q89.6248 306.126 90.1228 306.79 Q90.6024 307.436 90.6024 308.081 Q90.6024 308.339 90.547 308.69 Q90.4917 309.022 89.9752 309.557 Q89.4403 310.092 88.4996 310.092 Q85.862 310.092 83.7592 308.1 Q81.6565 306.089 81.6565 303.027 Q81.6565 299.559 83.7223 297.291 Q85.7697 295.004 88.9792 295.004 Q90.1043 295.004 91.1373 295.354 Q92.1518 295.686 92.9449 296.147 Q93.738 296.59 95.0108 297.807 Q96.2835 299.025 97.1873 300.002 Q98.0911 300.98 100.009 303.175 L103.901 307.177 L103.901 300.371 Q103.901 297.051 103.606 296.793 Q103.071 296.424 100.249 295.963 L100.249 295.004 L106.816 296.073 L106.816 310.092 Z" fill="#000000" fill-rule="nonzero" fill-opacity="1" /><path clip-path="url(#clip130)" d="M200.945 21.2851 Q200.945 21.4695 200.497 22.26 Q200.075 23.0242 198.52 24.9477 Q196.966 26.8713 194.647 29.1111 Q193.777 29.9806 192.46 31.1927 Q191.142 32.4049 190.246 33.1954 L189.35 33.9859 Q185.925 36.8844 182.921 40.1255 Q183.132 40.0464 183.501 40.0201 Q183.87 39.9674 184.133 39.9674 L184.397 39.9674 Q185.767 39.9674 188.165 40.8896 Q190.273 41.5747 191.353 41.5747 Q192.407 41.5747 193.566 41.2058 Q194.726 40.8369 195.991 39.7566 Q197.255 38.6762 197.835 37.0425 Q197.941 36.779 197.993 36.7 Q198.046 36.5945 198.204 36.4891 Q198.362 36.3574 198.573 36.3574 Q198.863 36.3574 199.047 36.5155 Q199.232 36.6736 199.232 36.8844 Q199.232 37.3587 198.863 38.3073 Q198.52 39.2559 197.756 40.4417 Q197.018 41.6274 196.043 42.7078 Q195.095 43.7618 193.672 44.4996 Q192.249 45.2111 190.747 45.2111 Q189.667 45.2111 188.876 44.6841 Q188.086 44.1834 187.295 43.2085 Q186.215 41.97 185.635 41.5747 Q185.055 41.1531 184.159 41.1531 Q181.762 41.1531 179.574 44.4996 Q179.337 44.9739 179.179 45.0793 Q179.047 45.2111 178.731 45.2111 Q178.072 45.1847 178.072 44.6577 Q178.072 44.4469 178.652 43.5247 Q179.258 42.5761 180.602 40.916 Q181.972 39.2559 183.632 37.5959 L188.481 33.0636 Q193.856 28.5314 195.991 25.9754 Q195.095 25.9754 194.699 25.949 Q194.331 25.9227 193.593 25.7646 Q192.855 25.5801 191.827 25.1849 Q189.429 24.368 188.428 24.368 Q188.165 24.368 187.875 24.3944 Q187.585 24.4207 186.926 24.5525 Q186.294 24.6842 185.767 24.9477 Q185.24 25.1849 184.686 25.7119 Q184.133 26.2126 183.843 26.8977 Q183.764 27.1085 183.711 27.2139 Q183.659 27.3193 183.501 27.4247 Q183.369 27.5037 183.158 27.5037 Q182.842 27.5037 182.657 27.3193 Q182.499 27.1348 182.499 26.8977 Q182.499 26.4234 182.974 25.4484 Q183.448 24.4734 184.238 23.4194 Q185.029 22.3391 186.32 21.5486 Q187.611 20.758 189.034 20.758 Q189.877 20.758 190.589 21.127 Q191.327 21.4959 191.696 21.8911 Q192.091 22.26 192.75 23.0769 Q193.303 23.7093 193.566 23.9728 Q193.83 24.2363 194.357 24.5261 Q194.91 24.7896 195.516 24.7896 Q196.518 24.7896 197.44 24.0255 Q198.362 23.235 199.548 21.3378 Q199.864 20.758 200.365 20.758 Q200.945 20.758 200.945 21.2851 Z" fill="#000000" fill-rule="nonzero" fill-opacity="1" /><path clip-path="url(#clip130)" d="M206.481 48.0785 Q206.481 42.5265 207.883 39.5015 Q209.838 35.0008 214.449 35.0008 Q215.427 35.0008 216.441 35.2775 Q217.474 35.5358 218.765 36.5502 Q220.075 37.5647 220.868 39.2248 Q222.381 42.4343 222.381 48.0785 Q222.381 53.5936 220.979 56.6001 Q218.931 60.9901 214.412 60.9901 Q212.715 60.9901 210.982 60.1232 Q209.266 59.2563 208.178 57.1719 Q206.481 54.0547 206.481 48.0785 M209.617 47.6173 Q209.617 53.3169 210.022 55.5857 Q210.484 58.0389 211.738 59.1087 Q213.011 60.1601 214.412 60.1601 Q215.925 60.1601 217.179 59.0349 Q218.452 57.8913 218.839 55.4381 Q219.263 53.0218 219.245 47.6173 Q219.245 42.3605 218.876 40.2577 Q218.378 37.8045 217.05 36.8269 Q215.74 35.8309 214.412 35.8309 Q213.914 35.8309 213.379 35.9784 Q212.863 36.126 212.107 36.5502 Q211.35 36.9745 210.76 38.0259 Q210.188 39.0772 209.912 40.6635 Q209.617 42.7109 209.617 47.6173 Z" fill="#000000" fill-rule="nonzero" fill-opacity="1" /><path clip-path="url(#clip130)" d="M242.958 36.4101 Q243.011 35.7513 244.038 35.7513 L277.108 35.7513 Q278.663 35.7513 278.689 36.3574 Q278.689 37.0162 277.213 36.9898 L244.407 36.9898 Q242.958 37.0162 242.958 36.4101 M242.958 25.87 Q242.958 25.2112 244.091 25.2376 L277.055 25.2376 Q278.663 25.2376 278.689 25.87 Q278.689 26.4761 277.319 26.4761 L244.038 26.4761 Q242.958 26.4761 242.958 25.87 Z" fill="#000000" fill-rule="nonzero" fill-opacity="1" /><path clip-path="url(#clip130)" d="M350.102 30.3495 Q350.418 30.6657 350.418 31.1137 Q350.418 31.5617 350.102 31.8779 Q349.786 32.1941 349.338 32.1941 L315.557 32.1941 Q315.109 32.1941 314.793 31.8779 Q314.477 31.5617 314.477 31.1137 Q314.477 30.6657 314.793 30.3495 Q315.109 30.0333 315.557 30.0333 L349.338 30.0333 Q349.786 30.0333 350.102 30.3495 Z" fill="#000000" fill-rule="nonzero" fill-opacity="1" /><path clip-path="url(#clip130)" d="M371.023 44.605 Q371.023 43.6301 371.102 43.3402 Q371.207 43.0504 371.629 42.6024 L381.985 31.061 Q387.65 24.6842 387.65 19.1243 Q387.65 15.5143 385.753 12.932 Q383.882 10.3497 380.43 10.3497 Q378.058 10.3497 376.056 11.799 Q374.053 13.2482 373.131 15.8306 Q373.289 15.7779 373.842 15.7779 Q375.186 15.7779 375.924 16.6211 Q376.688 17.4643 376.688 18.5973 Q376.688 20.0466 375.74 20.758 Q374.817 21.4432 373.895 21.4432 Q373.526 21.4432 373.026 21.3641 Q372.551 21.2851 371.787 20.5472 Q371.023 19.7831 371.023 18.4392 Q371.023 14.6711 373.869 11.6672 Q376.741 8.66328 381.115 8.66328 Q386.069 8.66328 389.31 11.6145 Q392.577 14.5394 392.577 19.1243 Q392.577 20.7317 392.077 22.2073 Q391.603 23.6566 390.944 24.7896 Q390.311 25.9227 388.572 27.7409 Q386.833 29.559 385.437 30.8502 Q384.04 32.1414 380.904 34.8818 L375.186 40.4417 L384.91 40.4417 Q389.653 40.4417 390.021 40.0201 Q390.548 39.2559 391.207 35.2243 L392.577 35.2243 L391.049 44.605 L371.023 44.605 Z" fill="#000000" fill-rule="nonzero" fill-opacity="1" /><path clip-path="url(#clip130)" d="M398.512 43.7355 Q397.747 42.8659 397.747 41.7328 Q397.747 40.5998 398.485 39.7566 Q399.249 38.887 400.62 38.887 Q402.227 38.887 403.149 40.4417 Q404.071 41.97 404.071 44.5523 Q404.071 47.3455 402.938 49.9278 Q401.805 52.5365 400.699 53.7749 Q399.592 55.0134 399.144 55.0134 Q398.617 55.0134 398.617 54.4337 Q398.617 54.2229 398.986 53.8276 Q402.859 49.6643 402.886 44.5523 Q402.886 43.7355 402.78 43.7355 L402.649 43.8409 Q401.726 44.605 400.62 44.605 Q399.276 44.605 398.512 43.7355 Z" fill="#000000" fill-rule="nonzero" fill-opacity="1" /><path clip-path="url(#clip130)" d="M449.427 21.8911 Q449.427 22.1019 448.399 23.9464 Q446.687 27.3456 444.5 32.5366 Q442.313 37.7276 441.074 41.5747 Q440.811 42.497 440.626 43.6828 Q440.152 47.3191 438.623 52.9581 Q438.096 54.7235 437.754 55.4613 Q437.411 56.1991 436.911 56.1991 Q436.199 56.1991 436.199 55.2242 Q436.199 54.2492 437.095 50.6129 Q438.017 46.9765 439.019 43.6301 Q439.651 41.7855 439.651 38.3337 Q439.651 37.227 439.598 36.2256 Q439.546 35.2243 439.335 33.7751 Q439.124 32.3258 438.782 31.14 Q438.439 29.9543 437.78 28.7158 Q437.122 27.451 436.226 26.6078 Q435.33 25.7382 433.96 25.1849 Q432.616 24.6315 430.929 24.6315 Q430.508 24.6315 429.981 24.6842 Q429.48 24.7106 428.268 25.0531 Q427.082 25.3957 426.081 26.0017 Q425.079 26.5815 423.999 27.8726 Q422.919 29.1638 422.339 30.9029 L422.128 31.1664 Q421.786 31.1664 421.601 31.1664 Q421.443 31.14 421.259 31.0083 Q421.101 30.8765 421.101 30.6394 Q421.101 30.086 421.522 28.9793 Q421.97 27.8726 422.866 26.4497 Q423.788 25.0268 424.974 23.762 Q426.186 22.4972 427.952 21.6276 Q429.717 20.758 431.614 20.758 Q436.489 20.758 438.808 26.6869 Q440.837 31.7198 441.021 37.7013 Q445.237 27.0821 448.136 21.733 Q448.294 21.3378 448.768 21.3378 Q449.427 21.3641 449.427 21.8911 Z" fill="#000000" fill-rule="nonzero" fill-opacity="1" /><path clip-path="url(#clip130)" d="M463.737 36.4101 Q463.789 35.7513 464.817 35.7513 L497.887 35.7513 Q499.441 35.7513 499.468 36.3574 Q499.468 37.0162 497.992 36.9898 L465.186 36.9898 Q463.737 37.0162 463.737 36.4101 M463.737 25.87 Q463.737 25.2112 464.87 25.2376 L497.834 25.2376 Q499.441 25.2376 499.468 25.87 Q499.468 26.4761 498.097 26.4761 L464.817 26.4761 Q463.737 26.4761 463.737 25.87 Z" fill="#000000" fill-rule="nonzero" fill-opacity="1" /><path clip-path="url(#clip130)" d="M520.283 27.3456 Q520.283 19.4142 522.286 15.0927 Q525.079 8.66328 531.666 8.66328 Q533.063 8.66328 534.512 9.05854 Q535.988 9.42744 537.832 10.8767 Q539.703 12.326 540.836 14.6975 Q542.997 19.2824 542.997 27.3456 Q542.997 35.2243 540.994 39.5194 Q538.07 45.7908 531.614 45.7908 Q529.19 45.7908 526.713 44.5523 Q524.262 43.3139 522.707 40.3363 Q520.283 35.8831 520.283 27.3456 M524.763 26.6869 Q524.763 34.8291 525.342 38.0702 Q526.001 41.5747 527.793 43.1031 Q529.611 44.605 531.614 44.605 Q533.774 44.605 535.566 42.9977 Q537.384 41.3639 537.938 37.8594 Q538.544 34.4075 538.518 26.6869 Q538.518 19.177 537.991 16.1731 Q537.279 12.6685 535.382 11.272 Q533.511 9.84905 531.614 9.84905 Q530.902 9.84905 530.138 10.0598 Q529.4 10.2707 528.32 10.8767 Q527.24 11.4828 526.396 12.9847 Q525.58 14.4867 525.184 16.7528 Q524.763 19.6777 524.763 26.6869 Z" fill="#000000" fill-rule="nonzero" fill-opacity="1" /><path clip-path="url(#clip130)" d="M547.824 43.7355 Q547.008 42.8659 547.008 41.7328 Q547.008 40.5998 547.824 39.7829 Q548.641 38.9397 549.88 38.9397 Q551.066 38.9397 551.856 39.7302 Q552.673 40.4944 552.673 41.7592 Q552.673 42.9977 551.803 43.8145 Q550.96 44.605 549.88 44.605 Q548.641 44.605 547.824 43.7355 Z" fill="#000000" fill-rule="nonzero" fill-opacity="1" /><path clip-path="url(#clip130)" d="M561.857 44.605 Q561.857 43.6301 561.937 43.3402 Q562.042 43.0504 562.464 42.6024 L572.819 31.061 Q578.484 24.6842 578.484 19.1243 Q578.484 15.5143 576.587 12.932 Q574.716 10.3497 571.265 10.3497 Q568.893 10.3497 566.89 11.799 Q564.888 13.2482 563.965 15.8306 Q564.124 15.7779 564.677 15.7779 Q566.021 15.7779 566.759 16.6211 Q567.523 17.4643 567.523 18.5973 Q567.523 20.0466 566.574 20.758 Q565.652 21.4432 564.73 21.4432 Q564.361 21.4432 563.86 21.3641 Q563.386 21.2851 562.622 20.5472 Q561.857 19.7831 561.857 18.4392 Q561.857 14.6711 564.703 11.6672 Q567.575 8.66328 571.95 8.66328 Q576.903 8.66328 580.145 11.6145 Q583.412 14.5394 583.412 19.1243 Q583.412 20.7317 582.911 22.2073 Q582.437 23.6566 581.778 24.7896 Q581.146 25.9227 579.407 27.7409 Q577.668 29.559 576.271 30.8502 Q574.874 32.1414 571.739 34.8818 L566.021 40.4417 L575.744 40.4417 Q580.487 40.4417 580.856 40.0201 Q581.383 39.2559 582.042 35.2243 L583.412 35.2243 L581.884 44.605 L561.857 44.605 Z" fill="#000000" fill-rule="nonzero" fill-opacity="1" /><path clip-path="url(#clip130)" d="M588.798 35.9094 Q588.798 34.3021 589.668 33.696 Q590.537 33.0636 591.459 33.0636 Q592.698 33.0636 593.409 33.8541 Q594.147 34.6183 594.147 35.6986 Q594.147 36.779 593.409 37.5695 Q592.698 38.3337 591.459 38.3337 Q590.853 38.3337 590.537 38.2283 Q591.249 40.7052 593.409 42.497 Q595.596 44.2888 598.468 44.2888 Q602.078 44.2888 604.239 40.7842 Q605.53 38.5181 605.53 33.3798 Q605.53 28.8476 604.555 26.5815 Q603.053 23.1296 599.97 23.1296 Q595.596 23.1296 593.014 26.8977 Q592.698 27.372 592.329 27.3983 Q591.802 27.3983 591.67 27.1085 Q591.565 26.7923 591.565 25.9754 L591.565 10.0071 Q591.565 8.71599 592.092 8.71599 Q592.303 8.71599 592.75 8.87409 Q596.15 10.3761 599.918 10.4024 Q603.791 10.4024 607.269 8.82139 Q607.533 8.66328 607.691 8.66328 Q608.218 8.66328 608.244 9.26934 Q608.244 9.48014 607.796 10.1125 Q607.375 10.7186 606.453 11.5355 Q605.53 12.326 604.345 13.0901 Q603.159 13.8543 601.42 14.3813 Q599.707 14.8819 597.81 14.8819 Q595.544 14.8819 593.225 14.1705 L593.225 24.6842 Q596.018 21.9438 600.076 21.9438 Q604.397 21.9438 607.375 25.422 Q610.352 28.9003 610.352 33.7487 Q610.352 38.8343 606.822 42.3126 Q603.317 45.7908 598.574 45.7908 Q594.252 45.7908 591.512 42.7078 Q588.798 39.6248 588.798 35.9094 Z" fill="#000000" fill-rule="nonzero" fill-opacity="1" /><circle clip-path="url(#clip132)" cx="201.13" cy="610.377" r="9" fill="#000000" fill-rule="evenodd" fill-opacity="1" stroke="none"/>
<circle clip-path="url(#clip132)" cx="274.486" cy="593.021" r="9" fill="#000000" fill-rule="evenodd" fill-opacity="1" stroke="none"/>
<circle clip-path="url(#clip132)" cx="341.944" cy="573.431" r="9" fill="#000000" fill-rule="evenodd" fill-opacity="1" stroke="none"/>
<circle clip-path="url(#clip132)" cx="404.732" cy="547.134" r="9" fill="#000000" fill-rule="evenodd" fill-opacity="1" stroke="none"/>
<circle clip-path="url(#clip132)" cx="463.704" cy="529.253" r="9" fill="#000000" fill-rule="evenodd" fill-opacity="1" stroke="none"/>
<circle clip-path="url(#clip132)" cx="519.481" cy="504.666" r="9" fill="#000000" fill-rule="evenodd" fill-opacity="1" stroke="none"/>
<circle clip-path="url(#clip132)" cx="572.533" cy="477.58" r="9" fill="#000000" fill-rule="evenodd" fill-opacity="1" stroke="none"/>
<circle clip-path="url(#clip132)" cx="623.223" cy="441.554" r="9" fill="#000000" fill-rule="evenodd" fill-opacity="1" stroke="none"/>
<circle clip-path="url(#clip132)" cx="671.841" cy="412.234" r="9" fill="#000000" fill-rule="evenodd" fill-opacity="1" stroke="none"/>
<circle clip-path="url(#clip132)" cx="718.623" cy="385.675" r="9" fill="#000000" fill-rule="evenodd" fill-opacity="1" stroke="none"/>
<circle clip-path="url(#clip132)" cx="763.761" cy="349.912" r="9" fill="#000000" fill-rule="evenodd" fill-opacity="1" stroke="none"/>
<circle clip-path="url(#clip132)" cx="807.419" cy="309.284" r="9" fill="#000000" fill-rule="evenodd" fill-opacity="1" stroke="none"/>
<circle clip-path="url(#clip132)" cx="849.732" cy="287.458" r="9" fill="#000000" fill-rule="evenodd" fill-opacity="1" stroke="none"/>
<circle clip-path="url(#clip132)" cx="890.818" cy="251.432" r="9" fill="#000000" fill-rule="evenodd" fill-opacity="1" stroke="none"/>
<circle clip-path="url(#clip132)" cx="930.778" cy="216.458" r="9" fill="#000000" fill-rule="evenodd" fill-opacity="1" stroke="none"/>
<circle clip-path="url(#clip132)" cx="969.699" cy="198.708" r="9" fill="#000000" fill-rule="evenodd" fill-opacity="1" stroke="none"/>
<polyline clip-path="url(#clip132)" style="stroke:#b22222; stroke-linecap:round; stroke-linejoin:round; stroke-width:4; stroke-opacity:1; fill:none" points="-636.611,585.132 1807.44,585.132 "/>
<polyline clip-path="url(#clip132)" style="stroke:#808080; stroke-linecap:round; stroke-linejoin:round; stroke-width:4; stroke-opacity:1; fill:none" stroke-dasharray="16, 10" points="519.481,1149.19 519.481,-412.814 "/>
</svg>
